# xmcd
#
# Track frame offsets: 
#        150
#        14240
#        25770
#        43480
#        59234
#        70687
#        85460
#        96801
#        108766
#        118713
#
# Disc length: 1749 seconds
#
# Revision: 2
# Processed by: cddbd v1.5.1PL2 Copyright (c) Steve Scherf et al.
# Submitted via: ExactAudioCopy v0.95b3
#
DISCID=8e06d30a
DTITLE=Jimmy Witherspoon - California Blues Disc 2
DYEAR=1900
DGENRE=
TTITLE0=I Done Found Out
TTITLE1=Sweet Lovin' Baby
TTITLE2=Ain't Nobody's Business
TTITLE3=No Rollin' Blues
TTITLE4=Big Fine Girl
TTITLE5=Failing By Degrees
TTITLE6=New Orleans Woman
TTITLE7=Fickle Woman
TTITLE8=Have A Ball
TTITLE9=Good Jumpin'
EXTD=
EXTT0=
EXTT1=
EXTT2=
EXTT3=
EXTT4=
EXTT5=
EXTT6=
EXTT7=
EXTT8=
EXTT9=
PLAYORDER=
